<svg xmlns="http://www.w3.org/2000/svg" xmlns:xlink="http://www.w3.org/1999/xlink" width="500" zoomAndPan="magnify" viewBox="0 0 375 374.999991" height="500" preserveAspectRatio="xMidYMid meet" version="1.0"><defs><clipPath id="12b022a57b"><path d="M 2 45.703125 L 375 45.703125 L 375 329 L 2 329 Z M 2 45.703125 " clip-rule="nonzero"/></clipPath></defs><path fill="#4d0e0e" d="M 333.582031 282.730469 C 334.351562 283.730469 335.042969 284.730469 335.8125 285.730469 C 336.96875 287.269531 339.203125 286.734375 339.433594 284.730469 C 339.742188 281.039062 340.046875 277.421875 340.355469 273.726562 C 339.125 274.035156 337.96875 274.34375 336.738281 274.726562 C 338.355469 277.804688 339.816406 280.960938 341.125 284.191406 C 341.511719 285.117188 342.203125 285.730469 343.203125 285.578125 C 344.207031 285.425781 344.820312 284.65625 344.898438 283.652344 C 345.050781 280.113281 345.285156 276.652344 345.4375 273.109375 C 344.359375 273.570312 343.28125 274.035156 342.125 274.496094 C 343.589844 276.113281 344.820312 278.035156 345.515625 280.113281 C 345.976562 281.421875 347.667969 282.039062 348.746094 280.960938 C 350.210938 279.421875 350.59375 276.882812 349.285156 275.113281 C 349.054688 275.957031 348.824219 276.882812 348.59375 277.726562 C 349.519531 277.035156 350.363281 276.34375 351.289062 275.726562 C 352.136719 275.113281 352.519531 274.035156 351.980469 273.109375 C 351.519531 272.265625 350.210938 271.800781 349.363281 272.417969 C 348.441406 273.109375 347.59375 273.804688 346.667969 274.417969 C 345.898438 275.035156 345.285156 276.113281 345.976562 277.035156 C 346.054688 277.113281 346.128906 277.265625 346.207031 277.34375 C 346.128906 277.1875 346.128906 277.1875 346.207031 277.421875 C 346.207031 277.496094 346.207031 277.574219 346.285156 277.652344 C 346.285156 277.496094 346.207031 277.496094 346.285156 277.726562 C 346.359375 277.421875 346.207031 278.035156 346.207031 278.035156 C 346.285156 277.882812 346.285156 277.957031 346.128906 278.113281 C 346.207031 278.035156 346.207031 278.035156 346.054688 278.191406 C 347.132812 278.496094 348.207031 278.730469 349.285156 279.035156 C 348.285156 276.34375 346.824219 273.878906 344.898438 271.726562 C 343.742188 270.417969 341.664062 271.496094 341.589844 273.109375 C 341.433594 276.652344 341.203125 280.113281 341.050781 283.652344 C 342.28125 283.5 343.589844 283.347656 344.820312 283.117188 C 343.4375 279.574219 341.820312 276.113281 340.046875 272.800781 C 339.664062 272.03125 338.664062 271.726562 337.894531 271.957031 C 337.046875 272.1875 336.582031 272.957031 336.507812 273.804688 C 336.199219 277.496094 335.890625 281.113281 335.582031 284.808594 C 336.816406 284.5 337.96875 284.191406 339.203125 283.808594 C 338.429688 282.808594 337.738281 281.808594 336.96875 280.804688 C 336.351562 279.960938 335.273438 279.574219 334.351562 280.113281 C 333.425781 280.574219 332.964844 281.882812 333.582031 282.730469 Z M 333.582031 282.730469 " fill-opacity="1" fill-rule="nonzero"/><g clip-path="url(#12b022a57b)"><path fill="#4d0e0e" d="M 373.769531 297.507812 C 372.535156 293.121094 369.148438 290.042969 366.148438 286.808594 C 362.988281 283.347656 362.835938 278.804688 360.910156 274.726562 C 359.0625 270.570312 355.597656 267.414062 351.902344 264.953125 C 348.054688 262.335938 343.667969 260.410156 339.355469 258.566406 C 334.582031 256.488281 329.730469 254.5625 324.804688 252.792969 C 311.253906 248.019531 297.167969 244.558594 282.925781 242.632812 C 281.308594 233.246094 275.996094 224.933594 271.375 216.773438 C 270.222656 214.695312 269.066406 212.621094 267.988281 210.542969 C 267.449219 209.464844 266.988281 208.464844 266.527344 207.386719 C 266.449219 207.15625 266.371094 206.925781 266.21875 206.691406 C 265.988281 206.078125 265.757812 205.460938 265.527344 204.769531 C 264.753906 202.539062 264.140625 200.152344 263.753906 197.765625 C 263.753906 197.765625 263.753906 197.6875 263.753906 197.6875 C 263.753906 197.304688 263.679688 196.996094 263.679688 196.613281 C 263.601562 195.917969 263.523438 195.148438 263.523438 194.457031 C 263.371094 192.917969 263.292969 191.378906 263.0625 189.839844 C 262.675781 186.605469 261.832031 183.605469 260.289062 180.757812 C 259.058594 178.449219 257.441406 176.292969 255.902344 174.140625 C 254.285156 171.828125 252.898438 169.445312 251.667969 166.980469 C 251.359375 166.367188 251.128906 165.75 250.820312 165.210938 C 250.667969 164.902344 250.589844 164.597656 250.4375 164.289062 C 249.898438 162.902344 249.433594 161.59375 248.972656 160.207031 C 248.203125 157.667969 247.511719 155.050781 246.972656 152.359375 C 246.742188 151.050781 246.511719 149.664062 246.277344 148.355469 C 246.203125 148.050781 246.203125 147.664062 246.125 147.355469 C 246.125 147.28125 246.046875 146.972656 246.046875 146.816406 C 245.972656 146.125 245.894531 145.433594 245.816406 144.664062 C 245.277344 139.8125 244.96875 134.964844 244.277344 130.117188 C 243.046875 121.113281 240.042969 111.570312 231.882812 106.492188 C 230.804688 105.875 229.726562 105.335938 228.648438 104.71875 C 228.496094 104.644531 228.265625 104.488281 228.109375 104.414062 C 228.339844 104.566406 227.800781 104.179688 227.726562 104.105469 C 227.726562 104.105469 227.496094 103.875 227.339844 103.71875 C 227.261719 103.566406 227.1875 103.488281 227.109375 103.335938 C 227.03125 103.257812 226.957031 103.027344 226.878906 102.875 C 226.800781 102.488281 226.648438 102.179688 226.570312 101.796875 C 226.570312 101.566406 226.570312 101.410156 226.570312 101.179688 C 226.570312 100.640625 226.570312 100.101562 226.570312 99.5625 C 226.570312 99.101562 226.648438 98.640625 226.722656 98.101562 C 226.800781 97.871094 226.800781 97.5625 226.800781 97.332031 C 226.957031 96.332031 227.109375 95.332031 227.261719 94.40625 C 227.570312 91.945312 227.800781 89.558594 227.417969 87.097656 C 227.03125 84.710938 225.722656 82.402344 223.875 80.785156 C 222.875 79.9375 221.71875 79.167969 220.566406 78.476562 C 220.027344 78.167969 219.488281 77.859375 219.027344 77.476562 C 218.871094 77.320312 218.640625 77.246094 218.488281 77.089844 C 218.332031 76.9375 218.023438 76.707031 217.949219 76.628906 C 217.5625 76.246094 217.101562 75.859375 216.792969 75.398438 C 216.640625 75.167969 216.410156 74.9375 216.253906 74.78125 C 216.253906 74.78125 216.253906 74.707031 216.175781 74.707031 C 216.175781 74.707031 216.175781 74.707031 216.175781 74.628906 C 215.484375 73.703125 214.867188 72.703125 214.328125 71.703125 C 213.175781 69.550781 212.175781 67.316406 211.171875 65.085938 C 209.171875 60.542969 206.785156 56.15625 202.859375 52.925781 C 198.316406 49.230469 192.621094 47.308594 187 49.847656 C 185.921875 50.308594 184.996094 51 183.996094 51.695312 C 183.535156 52.003906 183.074219 52.386719 182.613281 52.695312 C 182.378906 52.847656 182.074219 53.003906 181.839844 53.15625 C 181.765625 53.234375 181.6875 53.234375 181.609375 53.234375 C 181.535156 53.234375 181.535156 53.234375 181.457031 53.308594 C 181.226562 53.386719 180.996094 53.464844 180.839844 53.464844 C 180.917969 53.464844 180.917969 53.464844 180.996094 53.464844 C 180.917969 53.464844 180.839844 53.464844 180.839844 53.464844 C 180.6875 53.464844 180.53125 53.464844 180.457031 53.464844 C 180.226562 53.464844 179.992188 53.464844 179.761719 53.464844 C 179.839844 53.464844 179.839844 53.464844 179.917969 53.542969 C 179.6875 53.464844 179.453125 53.464844 179.300781 53.386719 C 178.839844 53.308594 178.453125 53.15625 177.992188 53.003906 C 177.761719 52.925781 177.53125 52.847656 177.375 52.773438 C 176.992188 52.617188 176.605469 52.386719 176.144531 52.15625 C 175.222656 51.695312 174.296875 51.15625 173.371094 50.617188 C 171.679688 49.617188 169.984375 48.617188 168.136719 47.769531 C 165.90625 46.769531 163.671875 46.074219 161.285156 46 C 159.207031 45.921875 157.28125 46.460938 156.28125 48.539062 C 155.589844 49.925781 155.050781 51.386719 154.589844 52.847656 C 153.125 57.929688 153.125 63.546875 154.742188 68.546875 C 155.28125 70.164062 155.972656 71.78125 156.742188 73.320312 C 154.820312 76.398438 154.589844 80.554688 156.050781 83.863281 C 153.433594 86.941406 152.203125 91.097656 152.277344 95.332031 C 152.355469 97.949219 152.816406 100.640625 153.664062 103.105469 C 153.894531 103.875 154.203125 104.566406 154.589844 105.335938 C 154.742188 105.644531 154.894531 106.027344 155.050781 106.335938 C 155.128906 106.492188 155.28125 106.875 155.359375 107.027344 C 155.667969 107.722656 155.898438 108.414062 156.050781 109.105469 C 156.050781 109.105469 156.050781 109.183594 156.050781 109.261719 C 156.050781 109.335938 156.050781 109.414062 156.050781 109.492188 C 156.050781 109.644531 156.050781 109.800781 156.050781 109.953125 C 156.050781 110.183594 156.050781 110.261719 156.050781 110.339844 C 155.898438 110.878906 155.511719 111.800781 155.511719 111.953125 C 155.433594 112.03125 155.433594 112.183594 155.359375 112.261719 C 155.203125 112.570312 155.050781 112.953125 154.894531 113.261719 C 154.203125 114.800781 153.433594 116.339844 153.046875 117.957031 C 152.277344 121.113281 152.664062 124.34375 153.511719 127.5 C 154.203125 130.195312 155.28125 132.886719 155.898438 135.660156 C 155.972656 135.964844 156.050781 136.273438 156.050781 136.582031 C 156.050781 136.660156 156.050781 136.660156 156.128906 136.734375 C 156.128906 136.8125 156.128906 136.8125 156.128906 136.890625 C 156.207031 137.582031 156.207031 138.273438 156.128906 138.96875 C 156.128906 139.042969 156.128906 139.199219 156.128906 139.277344 C 156.050781 139.582031 156.050781 139.8125 155.972656 140.121094 C 155.898438 140.429688 155.820312 140.738281 155.667969 141.121094 C 155.589844 141.277344 155.589844 141.429688 155.511719 141.507812 C 155.511719 141.585938 155.433594 141.660156 155.433594 141.738281 C 155.359375 141.96875 155.359375 141.890625 155.511719 141.507812 C 155.589844 141.585938 154.742188 143.046875 154.664062 143.199219 C 154.28125 143.816406 153.894531 144.355469 153.511719 144.894531 C 153.355469 145.046875 152.742188 145.894531 153.28125 145.203125 C 153.125 145.433594 152.894531 145.664062 152.742188 145.894531 C 152.277344 146.433594 151.816406 146.972656 151.355469 147.511719 C 149.351562 149.742188 147.273438 151.898438 145.503906 154.28125 C 141.886719 159.285156 139.652344 166.210938 142.808594 171.984375 C 143.195312 172.753906 143.808594 173.445312 144.347656 174.0625 C 144.582031 174.371094 144.8125 174.601562 145.042969 174.910156 C 145.117188 175.0625 145.273438 175.140625 145.351562 175.292969 C 145.351562 175.292969 145.351562 175.292969 145.351562 175.371094 C 145.425781 175.445312 145.503906 175.601562 145.582031 175.679688 C 145.65625 175.910156 145.734375 176.140625 145.734375 176.449219 C 145.734375 176.523438 145.8125 176.832031 145.8125 176.988281 C 145.890625 177.523438 145.890625 177.988281 145.964844 178.527344 C 146.273438 182.066406 146.660156 185.527344 146.964844 189.070312 C 147.273438 192.609375 147.660156 196.074219 147.96875 199.613281 C 148.277344 203.074219 148.738281 206.539062 148.890625 210.003906 C 148.890625 210.386719 148.890625 210.773438 148.890625 211.15625 C 148.890625 210.617188 148.890625 210.925781 148.8125 211.234375 C 148.738281 211.386719 148.582031 211.542969 148.507812 211.695312 C 148.351562 211.851562 148.277344 211.925781 148.121094 212.082031 C 147.582031 212.621094 147.121094 213.15625 146.660156 213.773438 C 145.351562 215.46875 144.117188 217.160156 142.808594 218.851562 C 141.5 220.699219 140.269531 222.46875 138.960938 224.316406 C 138.34375 225.164062 137.726562 226.011719 137.191406 226.78125 C 136.957031 227.164062 136.652344 227.472656 136.417969 227.859375 C 136.265625 228.011719 136.1875 228.164062 136.035156 228.320312 C 135.648438 228.78125 135.265625 229.320312 134.878906 229.703125 C 134.726562 229.859375 134.648438 230.011719 134.570312 230.167969 C 134.1875 230.167969 133.800781 230.167969 133.417969 230.167969 C 122.40625 230.703125 111.476562 232.246094 100.542969 232.78125 C 89.6875 233.320312 78.832031 233.398438 68.054688 235.015625 C 57.585938 236.554688 47.808594 240.941406 37.414062 242.710938 C 27.945312 244.328125 17.785156 245.328125 10.238281 251.871094 C 3.925781 257.332031 0 266.722656 3.617188 274.726562 C 7.699219 283.652344 18.554688 285.425781 27.097656 287.347656 C 48.730469 292.121094 70.75 295.273438 92.921875 296.890625 C 98.3125 297.277344 103.699219 297.582031 109.089844 297.738281 C 114.015625 297.890625 114.015625 290.195312 109.089844 290.042969 C 88.074219 289.273438 67.132812 287.039062 46.421875 283.347656 C 41.339844 282.421875 36.261719 281.421875 31.179688 280.34375 C 26.558594 279.34375 21.789062 278.496094 17.398438 276.882812 C 14.472656 275.804688 11.472656 273.878906 10.394531 271.109375 C 9.316406 268.339844 9.929688 265.261719 11.472656 262.566406 C 15.472656 255.101562 23.480469 252.871094 31.257812 251.484375 C 36.105469 250.636719 40.957031 250.023438 45.730469 248.867188 C 50.578125 247.636719 55.277344 245.789062 60.125 244.480469 C 69.980469 241.789062 80.144531 241.324219 90.304688 240.941406 C 100.773438 240.554688 111.167969 239.785156 121.5625 238.785156 C 131.722656 237.863281 141.960938 237.246094 152.125 238.171875 C 162.210938 239.09375 172.0625 241.09375 181.996094 243.019531 C 192.15625 245.019531 202.320312 246.945312 212.636719 247.867188 C 223.261719 248.789062 233.960938 248.40625 244.664062 248.175781 C 264.679688 247.714844 284.386719 249.328125 303.863281 254.179688 C 313.566406 256.5625 323.035156 259.71875 332.273438 263.492188 C 336.429688 265.183594 340.664062 267.03125 344.667969 269.183594 C 347.902344 270.957031 351.289062 273.109375 353.289062 276.265625 C 355.675781 279.960938 355.675781 284.65625 358.0625 288.425781 C 360.140625 291.8125 363.605469 294.121094 365.609375 297.507812 C 367.457031 300.507812 366.609375 304.125 364.53125 306.820312 C 362.066406 309.898438 358.140625 311.667969 354.597656 312.976562 C 335.890625 319.824219 315.71875 320.824219 295.933594 320.75 C 291.007812 320.75 286.15625 320.671875 281.230469 320.59375 C 276.304688 320.519531 276.304688 328.214844 281.230469 328.292969 C 302.402344 328.675781 323.957031 328.984375 344.667969 323.980469 C 353.984375 321.75 365.300781 318.902344 371.226562 310.667969 C 373.691406 307.050781 375 302.046875 373.769531 297.507812 Z M 263.910156 197.917969 Z M 250.976562 164.980469 C 251.050781 165.210938 251.207031 165.597656 250.976562 164.980469 Z M 234.421875 120.882812 C 234.347656 120.726562 234.347656 120.652344 234.269531 120.496094 C 234.269531 120.652344 234.421875 120.804688 234.421875 120.882812 Z M 227.417969 103.410156 C 227.339844 103.335938 227.261719 103.257812 227.261719 103.257812 C 227.339844 103.335938 227.339844 103.335938 227.417969 103.410156 Z M 191.925781 56.3125 C 191.773438 56.3125 191.695312 56.390625 191.695312 56.3125 C 191.695312 56.3125 191.773438 56.3125 191.925781 56.3125 Z M 164.828125 54.773438 C 164.828125 54.773438 164.75 54.773438 164.828125 54.773438 C 165.136719 54.925781 165.519531 55.082031 165.90625 55.3125 C 166.675781 55.695312 167.523438 56.15625 168.292969 56.621094 C 171.757812 58.621094 175.144531 60.699219 179.222656 61.160156 C 179.761719 61.238281 180.226562 61.238281 180.765625 61.238281 C 183.382812 63.238281 185.460938 65.855469 186.84375 68.855469 C 189.078125 73.550781 188.925781 79.398438 184.996094 83.171875 C 183.535156 84.554688 181.765625 85.480469 179.839844 85.710938 C 179.761719 85.632812 179.609375 85.558594 179.53125 85.480469 C 178.761719 85.019531 177.839844 85.171875 177.222656 85.789062 C 177.144531 85.789062 176.992188 85.863281 176.914062 85.941406 C 176.605469 85.632812 176.222656 85.480469 175.835938 85.402344 C 175.222656 84.402344 174.527344 83.554688 173.679688 82.710938 C 172.601562 81.710938 171.0625 82.171875 170.601562 83.324219 C 170.523438 83.25 170.449219 83.171875 170.449219 83.09375 C 169.910156 82.402344 168.832031 82.402344 168.0625 82.863281 C 167.90625 82.554688 167.753906 82.324219 167.675781 82.015625 C 167.214844 81.09375 165.90625 80.863281 165.058594 81.324219 C 164.671875 81.554688 164.367188 81.863281 164.289062 82.246094 C 164.210938 82.171875 164.132812 82.09375 164.058594 82.015625 C 164.058594 82.015625 163.828125 81.785156 163.671875 81.632812 C 163.828125 81.785156 163.980469 82.09375 163.671875 81.632812 C 163.597656 81.554688 163.597656 81.554688 163.597656 81.554688 C 163.597656 81.554688 163.671875 81.554688 163.671875 81.632812 C 163.597656 81.476562 163.441406 81.246094 163.363281 81.09375 C 163.289062 80.707031 163.210938 80.402344 163.058594 80.015625 C 163.058594 79.785156 163.058594 79.554688 163.058594 79.324219 C 163.058594 79.167969 163.210938 78.476562 163.058594 79.09375 C 163.058594 79.167969 163.058594 79.167969 163.058594 79.246094 C 163.058594 79.09375 163.132812 78.9375 163.132812 78.863281 C 163.210938 78.628906 163.289062 78.398438 163.363281 78.167969 C 163.363281 78.167969 163.363281 78.09375 163.363281 78.09375 C 163.441406 77.9375 163.671875 77.554688 163.828125 77.320312 C 163.902344 77.246094 163.902344 77.167969 163.980469 77.167969 C 164.132812 77.015625 164.367188 76.859375 164.519531 76.707031 C 165.75 75.707031 166.058594 73.320312 165.136719 72.011719 C 164.519531 71.164062 164.058594 70.320312 163.597656 69.472656 C 163.441406 69.164062 163.210938 68.78125 163.058594 68.394531 C 163.058594 68.472656 163.132812 68.472656 162.980469 68.164062 C 162.902344 67.855469 162.75 67.625 162.671875 67.316406 C 162.363281 66.394531 162.132812 65.46875 161.902344 64.546875 C 161.824219 64.316406 161.824219 64.085938 161.75 63.777344 C 161.75 63.777344 161.75 63.625 161.75 63.546875 C 161.75 63.46875 161.671875 63.007812 161.671875 63.007812 C 161.671875 62.777344 161.59375 62.46875 161.59375 62.238281 C 161.515625 61.3125 161.515625 60.3125 161.59375 59.390625 C 161.59375 59.003906 161.59375 58.621094 161.671875 58.234375 C 161.671875 58.160156 161.75 58.082031 161.75 57.929688 C 161.824219 57.695312 161.824219 57.464844 161.902344 57.160156 C 162.054688 56.15625 162.363281 55.234375 162.671875 54.234375 C 162.671875 54.15625 162.671875 54.15625 162.75 54.078125 C 162.902344 54.078125 163.058594 54.15625 163.132812 54.15625 C 163.597656 54.3125 164.058594 54.386719 164.441406 54.542969 C 164.519531 54.542969 164.671875 54.617188 164.75 54.695312 C 164.828125 54.695312 164.90625 54.695312 164.980469 54.773438 C 164.75 54.773438 164.75 54.773438 164.828125 54.773438 Z M 161.75 53.925781 C 161.824219 53.925781 161.824219 53.925781 161.75 53.925781 C 161.902344 54.003906 162.054688 54.003906 162.210938 54.003906 C 162.285156 54.078125 162.210938 54.078125 161.75 53.925781 Z M 148.96875 166.367188 C 148.96875 166.367188 148.96875 166.597656 148.96875 166.75 C 148.96875 166.671875 148.96875 166.519531 148.96875 166.367188 Z M 161.441406 176.753906 C 160.902344 176.679688 161.210938 176.679688 161.441406 176.753906 Z M 161.515625 176.753906 C 161.59375 176.753906 161.59375 176.753906 161.59375 176.753906 C 161.59375 176.753906 161.515625 176.753906 161.515625 176.753906 Z M 215.253906 153.746094 C 215.332031 153.746094 215.332031 153.820312 215.40625 153.820312 C 215.636719 153.898438 215.792969 153.976562 216.023438 154.128906 C 216.410156 154.359375 216.871094 154.589844 217.253906 154.820312 C 217.179688 154.746094 217.101562 154.746094 216.945312 154.667969 C 216.101562 154.28125 215.023438 154.589844 214.5625 155.4375 C 214.328125 155.898438 214.023438 156.359375 213.714844 156.824219 C 213.714844 156.824219 213.636719 156.824219 213.636719 156.824219 C 213.714844 155.820312 213.867188 154.898438 214.023438 153.898438 C 214.023438 153.746094 214.023438 153.589844 214.023438 153.359375 C 214.253906 153.4375 214.40625 153.511719 214.636719 153.511719 C 214.714844 153.589844 215.023438 153.667969 215.253906 153.746094 Z M 215.175781 153.746094 C 215.023438 153.667969 215.097656 153.667969 215.175781 153.746094 Z M 215.40625 153.820312 C 215.484375 153.820312 215.484375 153.820312 215.40625 153.820312 Z M 209.25 154.128906 C 209.25 153.976562 209.25 153.820312 209.324219 153.589844 C 209.402344 153.207031 209.171875 152.742188 208.941406 152.4375 C 209.402344 152.4375 209.941406 152.511719 210.402344 152.511719 C 210.019531 153.128906 209.632812 153.589844 209.25 154.128906 Z M 205.707031 152.667969 C 205.398438 153.128906 205.089844 153.589844 204.785156 154.050781 C 204.859375 153.589844 204.707031 153.128906 204.476562 152.742188 C 204.628906 152.742188 204.785156 152.667969 204.859375 152.667969 C 205.015625 152.667969 205.167969 152.667969 205.246094 152.589844 C 205.398438 152.589844 205.554688 152.589844 205.707031 152.589844 C 205.785156 152.589844 205.707031 152.589844 205.707031 152.667969 Z M 204.476562 152.667969 C 204.476562 152.667969 204.550781 152.667969 204.707031 152.667969 C 204.785156 152.667969 204.785156 152.667969 204.859375 152.667969 C 204.785156 152.667969 204.550781 152.667969 204.476562 152.667969 Z M 194.3125 158.285156 C 194.160156 158.285156 194.082031 158.207031 193.929688 158.132812 C 193.929688 157.59375 194.003906 157.054688 194.082031 156.59375 C 194.621094 156.285156 195.160156 155.976562 195.699219 155.667969 C 195.238281 156.515625 194.773438 157.363281 194.3125 158.285156 Z M 169.832031 185.066406 Z M 168.601562 222.316406 C 168.90625 221.929688 168.832031 222.394531 168.601562 222.316406 Z M 160.207031 218.621094 C 160.285156 218.621094 160.363281 218.699219 160.4375 218.699219 C 160.363281 218.777344 160.285156 218.929688 160.132812 219.007812 C 160.132812 218.851562 160.132812 218.777344 160.207031 218.621094 Z M 154.664062 188.070312 C 154.664062 188.070312 154.742188 187.992188 154.742188 187.992188 C 154.894531 188.070312 155.050781 188.144531 155.28125 188.222656 C 155.667969 188.300781 156.050781 188.300781 156.4375 188.144531 C 155.898438 188.683594 155.359375 189.300781 154.820312 189.839844 C 154.742188 189.300781 154.742188 188.683594 154.664062 188.070312 Z M 174.375 179.601562 C 174.449219 179.988281 174.527344 180.371094 174.683594 180.757812 C 174.375 180.605469 174.066406 180.449219 173.757812 180.296875 C 173.988281 180.140625 174.21875 179.910156 174.375 179.601562 Z M 183.6875 165.597656 C 183.765625 165.519531 183.84375 165.441406 183.921875 165.367188 C 183.84375 165.671875 183.6875 165.980469 183.613281 166.289062 C 183.613281 166.058594 183.6875 165.828125 183.6875 165.597656 Z M 145.582031 175.523438 C 145.503906 175.445312 145.503906 175.445312 145.582031 175.523438 Z M 251.28125 240.554688 C 241.8125 237.167969 231.960938 234.707031 222.027344 233.246094 C 221.027344 233.089844 219.949219 233.476562 219.640625 234.554688 C 219.410156 235.476562 219.949219 236.785156 220.949219 236.9375 C 227.109375 237.863281 233.191406 239.171875 239.121094 240.785156 C 235.960938 240.863281 232.730469 240.941406 229.496094 240.941406 C 218.640625 241.019531 208.015625 240.171875 197.316406 238.324219 C 186.539062 236.476562 175.835938 234.167969 165.058594 232.476562 C 173.296875 230.78125 181.609375 230.011719 190.003906 230.011719 C 192.464844 230.011719 192.464844 226.164062 190.003906 226.164062 C 180.457031 226.085938 170.832031 227.164062 161.515625 229.242188 C 160.207031 229.550781 159.902344 230.78125 160.285156 231.707031 C 154.972656 231.011719 149.585938 230.472656 144.195312 230.242188 C 145.195312 228.78125 146.195312 227.320312 147.273438 225.855469 C 148.507812 224.164062 149.738281 222.394531 150.96875 220.699219 C 151.199219 220.316406 151.507812 220.007812 151.738281 219.621094 C 151.816406 219.46875 151.972656 219.390625 152.046875 219.238281 C 152.507812 218.699219 152.972656 218.160156 153.433594 217.621094 C 153.972656 217.007812 154.511719 216.390625 154.972656 215.699219 C 155.050781 215.851562 155.128906 216.003906 155.203125 216.160156 C 153.820312 218.238281 152.507812 220.316406 151.125 222.394531 C 149.738281 224.472656 153.125 226.394531 154.433594 224.316406 C 154.972656 223.472656 155.589844 222.546875 156.128906 221.699219 C 156.128906 222.625 156.050781 223.472656 156.050781 224.394531 C 156.050781 225.933594 158.285156 227.089844 159.363281 225.78125 C 160.132812 224.855469 160.902344 223.855469 161.671875 222.933594 C 161.671875 223.007812 161.671875 223.085938 161.671875 223.238281 C 161.515625 224.164062 161.902344 225.472656 162.980469 225.625 C 164.828125 225.933594 166.289062 225.085938 167.445312 223.625 C 167.675781 223.316406 167.90625 223.007812 168.136719 222.777344 C 168.753906 223.777344 170.371094 224.242188 171.140625 223.164062 C 171.832031 222.316406 172.527344 221.394531 173.21875 220.546875 C 173.449219 221.929688 175.453125 222.394531 176.453125 221.46875 C 176.914062 221.007812 177.375 220.625 177.839844 220.160156 C 178.300781 221.085938 179.6875 221.546875 180.53125 220.929688 C 180.917969 220.699219 181.300781 220.390625 181.609375 220.160156 C 181.609375 220.238281 181.609375 220.390625 181.609375 220.46875 C 181.535156 222.164062 183.765625 222.933594 184.921875 221.855469 C 185.304688 221.46875 185.691406 221.085938 186.074219 220.699219 C 186.769531 221.085938 187.539062 221.316406 188.386719 221.46875 C 190.15625 221.777344 192.003906 222.085938 193.851562 222.316406 C 197.625 222.933594 201.394531 223.546875 205.246094 224.164062 C 209.789062 224.855469 214.253906 225.625 218.792969 226.320312 C 220.105469 226.78125 221.488281 227.164062 222.796875 227.625 C 223.644531 227.933594 224.644531 227.78125 225.414062 227.394531 C 226.417969 227.550781 227.417969 227.703125 228.417969 227.859375 C 229.417969 228.011719 230.496094 227.625 230.804688 226.550781 C 231.035156 225.625 230.496094 224.316406 229.496094 224.164062 C 228.878906 224.085938 228.265625 223.933594 227.648438 223.855469 C 227.570312 222.164062 226.570312 220.777344 224.875 220.160156 C 215.945312 217.160156 206.863281 214.621094 197.625 212.542969 C 193.003906 211.542969 188.460938 210.542969 183.765625 209.847656 C 181.457031 209.464844 178.992188 209.15625 176.683594 209.386719 C 174.066406 209.617188 171.757812 210.386719 169.445312 211.542969 C 169.0625 211.773438 168.675781 211.925781 168.292969 212.082031 C 168.214844 212.15625 168.0625 212.234375 167.90625 212.234375 C 167.597656 212.3125 167.367188 212.386719 167.058594 212.464844 C 167.058594 212.464844 166.984375 212.464844 166.984375 212.464844 C 166.90625 212.464844 166.828125 212.464844 166.675781 212.464844 C 166.214844 212.464844 166.289062 212.464844 166.828125 212.542969 C 166.519531 212.695312 165.75 212.3125 165.445312 212.15625 C 163.132812 211.386719 161.054688 210.308594 158.515625 210.386719 C 157.820312 210.386719 157.128906 210.617188 156.511719 211.003906 C 156.589844 209.695312 156.4375 208.464844 156.28125 207.15625 C 155.972656 203.691406 155.667969 200.230469 155.28125 196.765625 C 155.28125 196.457031 155.203125 196.148438 155.203125 195.765625 C 156.667969 196.613281 158.667969 196.535156 159.902344 195.226562 C 162.132812 192.839844 164.289062 190.53125 166.519531 188.144531 C 166.675781 187.992188 167.675781 186.835938 168.523438 185.992188 C 169.0625 186.296875 169.601562 186.605469 170.214844 186.914062 C 175.527344 189.839844 181.226562 192.148438 187.078125 193.917969 C 190.308594 194.839844 193.542969 195.609375 196.855469 196.148438 C 198.855469 196.457031 201.089844 195.609375 201.628906 193.457031 C 202.089844 191.609375 201.089844 189.070312 198.933594 188.683594 C 192.773438 187.683594 186.769531 185.914062 180.996094 183.605469 C 180.839844 183.527344 180.300781 183.296875 180.996094 183.605469 C 180.839844 183.527344 180.6875 183.453125 180.53125 183.375 C 180.226562 183.21875 179.917969 183.066406 179.609375 182.988281 C 178.917969 182.679688 178.144531 182.296875 177.453125 181.988281 C 177.914062 181.757812 178.222656 181.375 178.378906 180.835938 C 178.609375 179.910156 178.839844 178.910156 179.070312 177.988281 C 179.148438 178.757812 179.148438 179.449219 179.222656 180.21875 C 179.378906 181.835938 181.226562 182.757812 182.535156 181.605469 C 183.84375 180.371094 184.304688 178.601562 184.613281 176.832031 C 184.613281 176.679688 184.691406 176.523438 184.691406 176.371094 C 184.765625 177.371094 184.921875 178.292969 185.460938 179.140625 C 186.382812 180.605469 188.386719 180.21875 189 178.679688 C 189.230469 178.0625 189.464844 177.449219 189.617188 176.832031 C 189.847656 177.292969 190.308594 177.679688 190.847656 177.910156 C 193.160156 178.757812 194.234375 176.292969 194.929688 174.675781 C 195.160156 174.0625 195.390625 173.445312 195.699219 172.753906 C 195.851562 173.832031 196.160156 174.910156 196.699219 175.984375 C 197.316406 177.21875 199.394531 177.21875 200.011719 175.984375 C 200.394531 175.292969 200.703125 174.523438 201.011719 173.832031 C 201.933594 174.910156 203.859375 174.523438 204.320312 173.0625 C 204.398438 172.753906 204.550781 172.445312 204.628906 172.214844 C 205.554688 173.136719 207.324219 172.984375 207.863281 171.445312 C 208.171875 170.523438 208.554688 169.597656 208.863281 168.75 C 208.941406 168.828125 209.09375 168.828125 209.171875 168.90625 C 209.941406 169.214844 211.171875 168.984375 211.558594 168.136719 C 211.636719 167.980469 211.710938 167.828125 211.710938 167.675781 C 212.636719 167.90625 213.636719 167.597656 214.023438 166.367188 C 214.023438 166.289062 214.097656 166.210938 214.097656 166.136719 C 214.484375 166.136719 214.867188 165.980469 215.253906 165.671875 C 215.792969 166.75 217.179688 167.289062 218.332031 166.289062 C 218.488281 166.136719 218.640625 165.980469 218.71875 165.902344 C 219.027344 166.136719 219.410156 166.210938 219.71875 166.210938 C 220.640625 166.136719 221.414062 166.210938 222.335938 166.441406 C 224.722656 167.210938 225.722656 163.441406 223.335938 162.75 C 222.566406 162.519531 221.71875 162.363281 220.949219 162.363281 C 220.875 162.132812 220.796875 161.980469 220.71875 161.75 C 220.640625 161.59375 220.488281 161.441406 220.410156 161.285156 C 220.335938 160.746094 220.257812 160.285156 220.179688 159.746094 C 220.027344 158.824219 218.871094 158.207031 217.871094 158.363281 C 217.871094 157.824219 217.871094 157.363281 217.949219 156.824219 C 218.101562 155.976562 217.871094 155.207031 217.179688 154.746094 C 217.410156 154.898438 217.5625 154.976562 217.792969 155.128906 C 218.023438 155.285156 218.332031 155.515625 218.5625 155.667969 C 218.71875 155.820312 219.101562 156.128906 219.101562 156.128906 C 220.640625 157.4375 223.105469 157.746094 224.570312 156.128906 C 225.878906 154.667969 226.183594 152.128906 224.570312 150.664062 C 215.097656 142.507812 201.164062 143.429688 190.847656 149.433594 C 185.382812 152.667969 180.6875 157.054688 176.605469 161.902344 C 174.449219 164.441406 172.371094 167.058594 170.371094 169.753906 C 169.984375 170.289062 169.523438 170.828125 169.140625 171.445312 C 168.90625 171.753906 168.675781 171.984375 168.523438 172.292969 C 168.367188 172.445312 168.214844 172.675781 168.0625 172.832031 C 167.675781 173.371094 167.214844 173.832031 166.753906 174.292969 C 166.519531 174.523438 166.289062 174.832031 165.980469 175.0625 C 165.828125 175.214844 165.675781 175.292969 165.519531 175.445312 C 165.445312 175.523438 165.445312 175.523438 165.445312 175.523438 C 165.210938 175.753906 164.90625 175.910156 164.671875 176.0625 C 164.519531 176.140625 164.289062 176.21875 164.132812 176.371094 C 163.980469 176.449219 163.980469 176.449219 163.902344 176.523438 C 163.597656 176.601562 163.210938 176.679688 163.058594 176.753906 C 162.980469 176.753906 162.902344 176.832031 162.75 176.832031 C 162.75 176.832031 162.671875 176.832031 162.59375 176.832031 C 162.210938 176.832031 161.824219 176.832031 161.441406 176.832031 C 161.285156 176.832031 161.054688 176.753906 160.976562 176.753906 C 160.59375 176.679688 160.207031 176.601562 159.824219 176.449219 C 159.667969 176.371094 159.4375 176.292969 159.285156 176.21875 C 159.285156 176.21875 159.207031 176.21875 159.207031 176.21875 C 158.4375 175.832031 157.746094 175.445312 156.976562 175.0625 C 156.898438 174.984375 156.820312 174.984375 156.742188 174.910156 C 156.4375 174.292969 155.820312 173.90625 155.203125 173.832031 C 155.128906 173.832031 155.128906 173.753906 155.050781 173.753906 C 155.050781 173.753906 154.972656 173.675781 154.972656 173.675781 C 154.742188 173.523438 154.589844 173.371094 154.355469 173.136719 C 154.050781 172.832031 153.664062 172.601562 153.355469 172.292969 C 152.664062 171.675781 152.046875 171.058594 151.355469 170.445312 C 151.125 170.214844 150.816406 170.058594 150.507812 169.828125 C 150.199219 169.519531 149.96875 169.136719 149.660156 168.828125 C 150.199219 169.445312 149.585938 168.75 149.507812 168.519531 C 149.429688 168.367188 149.351562 168.289062 149.277344 168.136719 C 149.199219 167.980469 148.96875 167.289062 149.121094 167.828125 C 149.277344 168.367188 149.046875 167.519531 149.046875 167.367188 C 149.046875 167.210938 148.96875 167.058594 148.890625 166.90625 C 148.890625 166.90625 148.890625 166.90625 148.890625 166.75 C 148.890625 166.597656 148.890625 166.441406 148.890625 166.367188 C 148.890625 165.980469 148.890625 165.597656 148.890625 165.289062 C 148.890625 165.210938 148.890625 165.210938 148.890625 165.210938 C 148.890625 165.132812 148.890625 165.132812 148.890625 165.058594 C 148.96875 164.75 148.96875 164.519531 149.046875 164.210938 C 149.199219 163.519531 149.429688 162.902344 149.660156 162.285156 C 149.738281 162.132812 149.816406 162.054688 149.816406 161.902344 C 149.96875 161.59375 150.125 161.285156 150.277344 160.980469 C 150.585938 160.363281 150.96875 159.746094 151.355469 159.132812 C 151.507812 158.902344 151.664062 158.59375 151.894531 158.363281 C 151.894531 158.285156 152.046875 158.207031 152.125 158.132812 C 152.585938 157.59375 153.046875 157.054688 153.511719 156.59375 C 154.972656 154.976562 156.4375 153.4375 157.820312 151.820312 C 157.898438 152.207031 158.050781 152.589844 158.128906 153.050781 C 158.515625 154.207031 158.976562 155.667969 160.132812 156.285156 C 161.285156 156.898438 162.75 156.4375 163.980469 156.128906 C 165.058594 155.820312 166.136719 155.4375 167.136719 154.976562 C 169.140625 154.050781 170.988281 152.820312 172.601562 151.359375 C 173.371094 150.664062 173.371094 149.28125 172.601562 148.664062 C 171.832031 147.894531 170.679688 147.972656 169.910156 148.664062 C 169.214844 149.28125 168.832031 149.664062 168.0625 150.128906 C 167.367188 150.589844 166.597656 151.050781 165.75 151.433594 C 165.597656 151.511719 165.367188 151.589844 165.210938 151.667969 C 164.980469 151.742188 164.980469 151.742188 165.136719 151.742188 C 165.058594 151.820312 164.980469 151.820312 164.828125 151.820312 C 164.441406 151.972656 163.980469 152.128906 163.597656 152.28125 C 163.210938 152.4375 162.75 152.511719 162.285156 152.667969 C 162.210938 152.667969 162.132812 152.667969 162.132812 152.742188 C 162.132812 152.667969 162.054688 152.667969 162.054688 152.589844 C 161.902344 152.128906 161.746094 151.667969 161.59375 151.128906 C 161.515625 150.742188 161.363281 150.28125 161.285156 149.894531 C 161.210938 149.359375 161.132812 149.125 161.132812 148.742188 C 161.132812 148.433594 161.054688 148.050781 161.054688 147.742188 C 162.054688 146.046875 162.902344 144.203125 163.363281 142.277344 C 164.058594 139.121094 163.75 135.890625 162.902344 132.8125 C 162.210938 130.117188 161.132812 127.421875 160.515625 124.730469 C 160.4375 124.421875 160.363281 124.039062 160.285156 123.730469 C 160.285156 123.730469 160.285156 123.652344 160.285156 123.652344 C 160.285156 123.652344 160.285156 123.574219 160.285156 123.574219 C 160.207031 122.882812 160.207031 122.191406 160.207031 121.496094 C 160.207031 121.421875 160.207031 121.34375 160.207031 121.265625 C 160.207031 121.265625 160.207031 121.265625 160.207031 121.191406 C 160.285156 120.882812 160.363281 120.496094 160.4375 120.1875 C 160.515625 119.882812 160.59375 119.574219 160.746094 119.265625 C 160.824219 119.113281 160.824219 118.957031 160.902344 118.882812 C 160.902344 118.882812 160.902344 118.804688 160.976562 118.804688 C 161.980469 116.726562 163.058594 114.570312 163.519531 112.261719 C 163.980469 112.957031 164.441406 113.570312 164.828125 114.261719 C 165.519531 115.339844 166.90625 115.496094 167.828125 114.648438 C 168.523438 113.957031 169.292969 113.339844 169.984375 112.648438 C 171.0625 114.496094 171.832031 116.570312 172.296875 118.726562 C 172.601562 120.113281 174.605469 120.652344 175.527344 119.574219 C 175.683594 119.417969 175.835938 119.1875 176.066406 119.035156 C 176.144531 119.265625 176.296875 119.574219 176.375 119.804688 C 176.992188 121.191406 179.070312 120.960938 179.6875 119.804688 C 179.761719 119.726562 179.839844 119.574219 179.839844 119.496094 C 179.839844 119.652344 179.839844 119.726562 179.917969 119.882812 C 179.992188 121.960938 182.6875 122.421875 183.535156 120.726562 C 184.304688 120.882812 185.230469 120.652344 185.691406 119.882812 C 188.769531 114.726562 193.851562 111.183594 197.238281 106.257812 C 200.78125 101.179688 202.628906 95.023438 202.859375 88.867188 C 202.9375 86.402344 199.085938 86.402344 199.007812 88.867188 C 198.855469 94.636719 196.929688 100.179688 193.542969 104.796875 C 190.847656 108.492188 187.308594 111.492188 184.382812 115.03125 C 184.382812 115.03125 184.382812 115.03125 184.304688 114.957031 C 183.84375 114.496094 183.226562 114.339844 182.6875 114.417969 C 182.535156 114.03125 182.457031 113.648438 182.226562 113.261719 C 181.917969 112.570312 181.457031 111.953125 180.609375 111.878906 C 179.917969 111.800781 178.992188 112.109375 178.683594 112.800781 C 178.453125 113.417969 178.144531 114.03125 177.839844 114.570312 C 177.375 114.261719 176.683594 114.109375 176.222656 114.339844 C 175.835938 114.496094 175.453125 114.648438 175.066406 114.878906 C 174.296875 112.648438 173.21875 110.570312 171.832031 108.644531 C 171.0625 107.644531 169.832031 107.335938 168.832031 108.261719 C 168.136719 108.953125 167.367188 109.570312 166.675781 110.261719 C 166.367188 109.800781 165.980469 109.261719 165.675781 108.800781 C 165.058594 107.875 164.058594 107.796875 163.289062 108.105469 C 162.980469 106.492188 162.363281 105.105469 161.671875 103.566406 C 161.515625 103.257812 161.363281 102.949219 161.285156 102.640625 C 161.285156 102.640625 161.285156 102.566406 161.210938 102.566406 C 161.210938 102.566406 161.210938 102.488281 161.132812 102.410156 C 160.902344 101.871094 160.746094 101.257812 160.515625 100.71875 C 160.363281 100.179688 160.207031 99.640625 160.054688 99.101562 C 159.976562 98.792969 159.898438 98.488281 159.898438 98.179688 C 159.898438 98.023438 159.824219 97.949219 159.824219 97.792969 C 159.746094 96.640625 159.667969 95.5625 159.746094 94.40625 C 159.746094 94.253906 159.746094 94.023438 159.824219 93.867188 C 159.824219 93.792969 159.824219 93.636719 159.824219 93.5625 C 159.976562 93.023438 160.054688 92.40625 160.207031 91.867188 C 160.285156 91.636719 160.363281 91.40625 160.4375 91.175781 C 160.671875 90.714844 160.976562 90.25 161.285156 89.714844 C 161.285156 89.714844 161.285156 89.636719 161.363281 89.636719 C 161.515625 89.40625 161.746094 89.25 161.902344 89.019531 C 161.902344 89.019531 162.054688 88.867188 162.210938 88.789062 C 162.132812 88.867188 162.054688 88.867188 162.285156 88.710938 C 162.285156 88.710938 162.363281 88.636719 162.363281 88.636719 C 162.441406 88.558594 162.441406 88.558594 162.441406 88.558594 C 162.441406 88.558594 162.441406 88.558594 162.441406 88.636719 C 162.519531 88.558594 162.59375 88.558594 162.671875 88.480469 C 163.671875 87.867188 164.289062 86.867188 164.519531 85.789062 C 165.136719 86.867188 165.90625 87.941406 166.753906 88.941406 C 167.367188 89.636719 168.367188 89.636719 169.136719 89.175781 C 169.371094 89.558594 169.523438 89.945312 169.675781 90.328125 C 170.0625 91.253906 170.753906 91.867188 171.757812 91.714844 C 172.527344 91.558594 173.140625 91.097656 173.296875 90.328125 C 173.605469 91.175781 174.449219 91.714844 175.375 91.558594 C 175.605469 91.558594 175.757812 91.484375 175.992188 91.328125 C 176.144531 91.558594 176.375 91.714844 176.53125 91.945312 C 177.144531 92.558594 178.144531 92.636719 178.839844 92.253906 C 179.148438 92.023438 179.378906 91.789062 179.53125 91.484375 C 179.609375 91.558594 179.6875 91.636719 179.761719 91.789062 C 180.457031 92.558594 181.765625 92.484375 182.457031 91.789062 C 183.148438 91.097656 183.148438 90.097656 182.609375 89.328125 C 186.691406 87.710938 190 83.941406 191.003906 79.785156 C 192.773438 72.933594 189.617188 65.703125 184.765625 60.851562 C 184.691406 60.777344 184.613281 60.699219 184.535156 60.621094 C 184.613281 60.621094 184.691406 60.542969 184.691406 60.542969 C 185.691406 60.082031 186.539062 59.46875 187.382812 58.851562 C 187.769531 58.542969 188.230469 58.234375 188.617188 57.929688 C 188.847656 57.773438 189.15625 57.621094 189.386719 57.464844 C 189.539062 57.390625 189.769531 57.234375 189.925781 57.160156 C 189.769531 57.234375 189.695312 57.234375 189.539062 57.3125 C 190 57.003906 190.617188 57.003906 191.078125 56.851562 C 191.078125 56.851562 191.078125 56.851562 191.15625 56.851562 C 191.386719 56.851562 191.617188 56.851562 191.695312 56.851562 C 191.925781 56.851562 192.15625 56.851562 192.386719 56.851562 C 192.542969 56.851562 192.621094 56.851562 192.695312 56.851562 C 193.160156 56.925781 193.773438 57.160156 193.851562 57.234375 C 193.929688 57.234375 194.003906 57.3125 194.082031 57.3125 C 194.234375 57.390625 194.390625 57.390625 194.46875 57.464844 C 195.007812 57.699219 195.46875 58.003906 195.929688 58.3125 C 196.082031 58.390625 196.238281 58.542969 196.390625 58.621094 C 196.46875 58.621094 196.621094 58.773438 196.699219 58.851562 C 197.085938 59.160156 197.46875 59.542969 197.855469 59.851562 C 198.625 60.542969 199.316406 61.3125 199.933594 62.160156 C 199.933594 62.160156 199.933594 62.238281 200.011719 62.238281 C 200.164062 62.46875 200.316406 62.699219 200.550781 62.929688 C 200.855469 63.390625 201.164062 63.929688 201.472656 64.394531 C 202.550781 66.238281 203.398438 68.242188 204.246094 70.164062 C 206.015625 74.167969 207.941406 78.167969 210.941406 81.402344 C 212.558594 83.171875 214.558594 84.480469 216.640625 85.710938 C 217.101562 85.941406 217.484375 86.25 217.949219 86.558594 C 217.949219 86.558594 218.023438 86.558594 218.023438 86.632812 C 218.023438 86.632812 218.101562 86.710938 218.101562 86.710938 C 218.257812 86.867188 218.410156 87.019531 218.640625 87.25 C 218.640625 87.25 218.640625 87.25 218.640625 87.171875 C 218.640625 87.171875 218.640625 87.25 218.640625 87.25 C 218.640625 87.25 218.71875 87.328125 218.71875 87.328125 C 218.949219 87.558594 218.871094 87.558594 218.792969 87.480469 C 218.871094 87.558594 218.949219 87.636719 218.949219 87.710938 C 219.027344 87.789062 219.027344 87.941406 219.101562 88.019531 C 219.101562 88.097656 219.179688 88.171875 219.179688 88.25 C 219.257812 88.558594 219.332031 88.941406 219.410156 89.25 C 219.410156 89.40625 219.410156 89.636719 219.410156 89.789062 C 219.488281 90.714844 219.410156 91.636719 219.332031 92.484375 C 219.332031 92.636719 219.332031 92.792969 219.257812 92.945312 C 219.257812 92.945312 219.257812 92.945312 219.257812 93.023438 C 219.257812 93.097656 219.179688 93.253906 219.179688 93.332031 C 219.101562 93.636719 219.101562 93.945312 219.101562 94.253906 C 218.949219 95.484375 218.71875 96.714844 218.5625 97.949219 C 218.023438 102.027344 218.488281 106.183594 221.257812 109.339844 C 222.953125 111.261719 225.339844 112.183594 227.417969 113.492188 C 227.800781 113.726562 228.109375 113.957031 228.496094 114.261719 C 228.648438 114.417969 228.878906 114.570312 229.109375 114.726562 C 229.804688 115.339844 230.417969 116.035156 231.035156 116.726562 C 231.113281 116.878906 231.191406 116.957031 231.34375 117.109375 C 231.574219 117.496094 231.882812 117.878906 232.113281 118.265625 C 232.652344 119.113281 233.039062 119.957031 233.5 120.882812 C 233.5 120.882812 233.5 120.960938 233.574219 120.960938 C 233.652344 121.113281 233.652344 121.265625 233.730469 121.421875 C 233.882812 121.804688 234.039062 122.265625 234.191406 122.652344 C 234.578125 123.652344 234.808594 124.652344 235.117188 125.730469 C 235.578125 127.65625 235.960938 129.578125 236.269531 131.503906 C 236.269531 131.734375 236.347656 131.964844 236.347656 132.195312 C 236.347656 132.195312 236.347656 132.195312 236.347656 132.273438 C 236.425781 132.734375 236.425781 133.195312 236.5 133.65625 C 236.65625 134.65625 236.734375 135.660156 236.808594 136.660156 C 237.734375 146.355469 238.582031 156.054688 241.96875 165.289062 C 243.660156 169.984375 245.894531 174.445312 248.820312 178.601562 C 249.203125 179.140625 249.589844 179.679688 249.972656 180.21875 C 245.199219 178.679688 240.890625 176.0625 237.425781 172.445312 C 235.730469 170.675781 232.960938 173.371094 234.730469 175.140625 C 239.503906 180.066406 245.738281 183.453125 252.515625 184.835938 C 252.667969 184.835938 252.898438 184.914062 253.054688 184.835938 C 253.285156 185.222656 253.4375 185.605469 253.667969 185.992188 C 253.667969 186.066406 253.746094 186.066406 253.746094 186.144531 C 253.746094 186.222656 253.746094 186.222656 253.824219 186.296875 C 253.902344 186.605469 254.054688 186.835938 254.132812 187.144531 C 254.363281 187.761719 254.515625 188.375 254.671875 188.992188 C 254.746094 189.222656 254.746094 189.453125 254.824219 189.683594 C 254.824219 189.761719 254.976562 190.53125 254.976562 190.683594 C 255.285156 193.226562 255.363281 195.765625 255.671875 198.304688 C 255.980469 200.691406 256.441406 203.078125 257.132812 205.386719 C 258.441406 209.617188 260.289062 213.621094 262.445312 217.542969 C 264.523438 221.394531 266.757812 225.085938 268.914062 228.933594 C 269.527344 230.011719 270.144531 231.167969 270.683594 232.320312 C 270.144531 231.628906 269.605469 230.859375 268.988281 230.167969 C 267.910156 228.703125 265.679688 229.089844 265.449219 230.9375 C 264.832031 230.707031 264.140625 230.859375 263.679688 231.242188 C 263.140625 230.628906 262.523438 230.011719 261.832031 229.550781 C 261.214844 229.089844 260.214844 229.242188 259.675781 229.703125 C 258.980469 230.242188 258.90625 230.9375 258.980469 231.707031 C 259.136719 232.9375 259.445312 234.089844 259.828125 235.246094 C 254.285156 233.167969 248.742188 231.089844 243.199219 229.011719 C 242.199219 228.628906 241.121094 229.398438 240.8125 230.320312 C 240.503906 231.398438 241.199219 232.320312 242.121094 232.707031 C 249.050781 235.324219 255.902344 237.863281 262.832031 240.480469 C 264.449219 241.09375 265.757812 239.015625 264.988281 237.632812 C 264.988281 237.632812 265.0625 237.554688 265.140625 237.554688 C 265.527344 237.246094 265.832031 236.863281 266.140625 236.398438 C 266.988281 236.632812 268.066406 236.167969 268.449219 235.246094 C 268.988281 235.628906 269.683594 235.707031 270.375 235.324219 C 270.914062 235.015625 271.375 234.246094 271.375 233.550781 C 271.53125 233.9375 271.761719 234.246094 271.914062 234.628906 C 272.144531 235.09375 272.300781 235.554688 272.53125 235.9375 C 272.609375 236.09375 273.070312 236.9375 272.609375 236.09375 C 272.683594 236.246094 272.761719 236.476562 272.839844 236.632812 C 273.222656 237.632812 273.609375 238.710938 273.992188 239.785156 C 274.226562 240.480469 274.378906 241.171875 274.609375 241.941406 C 270.761719 241.554688 266.910156 241.25 263.140625 241.09375 C 259.367188 240.554688 255.285156 240.554688 251.28125 240.554688 Z M 160.4375 120.652344 C 160.4375 120.574219 160.4375 120.496094 160.4375 120.496094 C 160.4375 120.421875 160.4375 120.496094 160.4375 120.652344 Z M 160.4375 120.652344 " fill-opacity="1" fill-rule="nonzero"/></g><path fill="#4d0e0e" d="M 277.996094 296.199219 C 278.074219 296.277344 278.152344 296.429688 278.226562 296.507812 C 279 297.585938 279.769531 298.660156 280.460938 299.738281 C 281.539062 301.433594 283.925781 302.277344 285.695312 301.125 C 287.390625 300.046875 288.238281 297.660156 287.082031 295.890625 C 281.078125 286.347656 272.222656 278.960938 262.292969 273.804688 C 252.285156 268.570312 241.273438 265.335938 230.1875 263.257812 C 216.792969 260.796875 203.011719 259.71875 189.386719 259.71875 C 174.914062 259.71875 160.515625 260.949219 146.273438 263.492188 C 139.960938 264.566406 133.570312 265.722656 127.488281 267.722656 C 122.101562 269.492188 116.558594 272.109375 112.707031 276.417969 C 111.707031 277.574219 110.78125 278.882812 109.9375 280.191406 C 108.933594 281.960938 109.472656 284.5 111.320312 285.425781 C 113.167969 286.425781 115.554688 285.886719 116.558594 284.039062 C 116.863281 283.5 117.25 282.960938 117.558594 282.421875 C 117.558594 282.421875 117.558594 282.347656 117.636719 282.347656 C 117.867188 282.039062 118.097656 281.808594 118.328125 281.5 C 118.789062 281.039062 119.175781 280.574219 119.636719 280.191406 C 119.867188 280.035156 120.023438 279.804688 120.253906 279.652344 C 120.328125 279.574219 120.328125 279.574219 120.40625 279.5 C 120.40625 279.5 120.484375 279.421875 120.558594 279.421875 C 121.636719 278.652344 122.714844 277.957031 123.792969 277.421875 C 124.332031 277.113281 124.949219 276.804688 125.566406 276.574219 C 125.640625 276.574219 125.871094 276.417969 126.027344 276.34375 C 126.179688 276.265625 126.566406 276.113281 126.71875 276.035156 C 132.261719 273.878906 138.191406 272.726562 144.042969 271.570312 C 147.429688 270.957031 150.816406 270.339844 154.203125 269.800781 C 155.050781 269.648438 155.898438 269.570312 156.742188 269.417969 C 156.898438 269.417969 156.976562 269.417969 157.128906 269.339844 C 157.128906 269.339844 157.128906 269.339844 157.207031 269.339844 C 157.667969 269.261719 158.207031 269.183594 158.667969 269.183594 C 160.363281 268.953125 162.054688 268.800781 163.828125 268.570312 C 170.753906 267.878906 177.683594 267.414062 184.691406 267.339844 C 191.617188 267.183594 198.46875 267.414062 205.398438 267.878906 C 208.863281 268.109375 212.25 268.414062 215.714844 268.800781 C 217.410156 268.953125 219.027344 269.183594 220.71875 269.417969 C 220.875 269.417969 221.105469 269.492188 221.179688 269.492188 C 221.488281 269.570312 221.875 269.570312 222.183594 269.648438 C 222.875 269.722656 223.492188 269.878906 224.183594 269.953125 C 229.574219 270.800781 234.886719 271.878906 240.121094 273.339844 C 242.738281 274.035156 245.277344 274.878906 247.820312 275.804688 C 249.050781 276.265625 250.359375 276.726562 251.589844 277.1875 C 251.898438 277.34375 252.207031 277.421875 252.515625 277.574219 C 252.515625 277.574219 252.59375 277.574219 252.59375 277.574219 C 252.667969 277.574219 252.667969 277.652344 252.746094 277.652344 C 253.363281 277.882812 253.976562 278.191406 254.59375 278.496094 C 259.367188 280.730469 263.984375 283.347656 268.21875 286.5 C 268.21875 286.5 268.296875 286.578125 268.296875 286.578125 C 268.449219 286.808594 268.835938 287.039062 269.066406 287.195312 C 269.605469 287.65625 270.144531 288.039062 270.683594 288.503906 C 271.683594 289.347656 272.609375 290.195312 273.53125 291.121094 C 274.457031 292.042969 275.304688 292.964844 276.148438 293.96875 C 276.535156 294.429688 276.917969 294.890625 277.304688 295.351562 C 277.382812 295.507812 277.84375 296.199219 277.996094 296.199219 Z M 277.921875 296.042969 C 277.921875 296.042969 277.996094 296.121094 277.996094 296.121094 C 277.921875 296.121094 277.457031 295.507812 277.921875 296.042969 Z M 268.683594 286.886719 C 268.683594 286.964844 268.683594 286.886719 268.683594 286.886719 Z M 268.683594 286.886719 " fill-opacity="1" fill-rule="nonzero"/><path fill="#4d0e0e" d="M 179.761719 53.542969 C 179.070312 53.308594 179.453125 53.542969 179.761719 53.542969 Z M 179.761719 53.542969 " fill-opacity="1" fill-rule="nonzero"/><path fill="#4d0e0e" d="M 226.878906 97.949219 C 227.1875 97.023438 226.957031 97.5625 226.878906 97.949219 Z M 226.878906 97.949219 " fill-opacity="1" fill-rule="nonzero"/><path fill="#4d0e0e" d="M 180.917969 53.542969 C 180.917969 53.464844 180.917969 53.464844 180.917969 53.542969 C 180.609375 53.542969 180.457031 53.542969 180.53125 53.542969 C 180.6875 53.542969 180.765625 53.542969 180.917969 53.542969 Z M 180.917969 53.542969 " fill-opacity="1" fill-rule="nonzero"/><path fill="#4d0e0e" d="M 164.75 54.773438 C 164.75 54.773438 164.671875 54.773438 164.75 54.773438 C 164.671875 54.773438 164.671875 54.695312 164.671875 54.695312 C 164.597656 54.695312 164.519531 54.617188 164.441406 54.617188 C 164.289062 54.617188 164.210938 54.695312 164.75 54.773438 Z M 164.75 54.773438 " fill-opacity="1" fill-rule="nonzero"/><path fill="#4d0e0e" d="M 219.488281 87.097656 C 219.410156 87.019531 219.332031 86.867188 219.332031 86.789062 C 219.332031 86.941406 219.410156 87.019531 219.488281 87.097656 Z M 219.488281 87.097656 " fill-opacity="1" fill-rule="nonzero"/><path fill="#4d0e0e" d="M 162.980469 88.171875 C 162.980469 88.171875 162.902344 88.25 162.902344 88.25 C 162.824219 88.328125 162.824219 88.328125 162.75 88.40625 C 162.75 88.328125 162.902344 88.25 162.980469 88.171875 Z M 162.980469 88.171875 " fill-opacity="1" fill-rule="nonzero"/><path fill="#4d0e0e" d="M 219.871094 92.792969 C 219.871094 92.714844 219.949219 92.558594 219.949219 92.484375 C 219.796875 93.175781 219.796875 93.097656 219.871094 92.792969 Z M 219.871094 92.792969 " fill-opacity="1" fill-rule="nonzero"/><path fill="#4d0e0e" d="M 252.054688 200.613281 C 252.824219 201.304688 253.976562 201.382812 254.746094 200.613281 C 255.441406 199.921875 255.515625 198.535156 254.746094 197.917969 C 250.207031 194.148438 244.277344 192.53125 238.503906 193.609375 C 237.503906 193.765625 236.886719 195.070312 237.195312 195.996094 C 237.503906 197.074219 238.503906 197.535156 239.582031 197.304688 C 243.816406 196.535156 248.664062 197.765625 252.054688 200.613281 Z M 252.054688 200.613281 " fill-opacity="1" fill-rule="nonzero"/><path fill="#4d0e0e" d="M 223.953125 122.34375 C 223.105469 121.882812 221.71875 122.035156 221.335938 123.035156 C 218.871094 128.730469 214.328125 133.65625 208.402344 135.8125 C 205.554688 136.8125 202.472656 137.199219 199.546875 136.582031 C 197.546875 136.195312 195.699219 135.582031 193.699219 135.195312 C 191.617188 134.8125 189.464844 134.65625 187.382812 134.65625 C 182.6875 134.65625 177.992188 135.425781 173.371094 136.195312 C 172.371094 136.351562 171.757812 137.660156 172.0625 138.582031 C 172.371094 139.660156 173.371094 140.121094 174.449219 139.890625 C 178.609375 139.199219 182.84375 138.582031 187.078125 138.507812 C 189.15625 138.507812 191.234375 138.582031 193.3125 138.96875 C 195.3125 139.351562 197.316406 140.046875 199.316406 140.351562 C 206.246094 141.507812 213.019531 138.8125 218.101562 134.195312 C 220.949219 131.578125 223.261719 128.425781 224.800781 124.882812 C 225.03125 123.960938 224.953125 122.882812 223.953125 122.34375 Z M 223.953125 122.34375 " fill-opacity="1" fill-rule="nonzero"/><path fill="#4d0e0e" d="M 94.308594 279.265625 C 95.386719 279.652344 96.386719 279.035156 96.773438 277.960938 C 96.847656 277.882812 96.847656 277.804688 96.925781 277.652344 C 98.773438 278.265625 100.699219 278.265625 102.621094 277.726562 C 105.007812 277.035156 104.007812 273.339844 101.621094 274.035156 C 100.003906 274.496094 98.386719 274.265625 96.925781 273.417969 C 95.769531 272.726562 94.539062 273.417969 94.078125 274.574219 C 94 274.804688 93.847656 275.035156 93.769531 275.34375 C 93.539062 275.34375 93.308594 275.417969 93.152344 275.496094 C 92.691406 275.035156 92.074219 274.574219 91.460938 274.265625 C 90.535156 273.726562 89.6875 274.035156 89.074219 274.648438 C 88.6875 274.265625 88.226562 273.804688 87.765625 273.417969 C 86.917969 272.648438 85.839844 272.800781 85.148438 273.417969 C 84.453125 272.496094 83.839844 271.570312 83.066406 270.648438 C 82.144531 269.492188 80.144531 270.1875 79.835938 271.496094 C 79.605469 272.570312 79.449219 273.570312 79.296875 274.648438 C 78.988281 273.957031 78.601562 273.339844 78.296875 272.648438 C 77.601562 271.1875 75.753906 271.570312 74.984375 272.648438 C 74.367188 271.800781 73.289062 271.417969 72.367188 271.957031 C 71.519531 272.417969 71.058594 273.726562 71.675781 274.574219 C 72.984375 276.496094 74.367188 278.34375 75.675781 280.269531 C 76.371094 281.191406 77.601562 281.421875 78.449219 280.882812 C 79.296875 282.191406 80.144531 283.421875 81.144531 284.65625 C 82.296875 286.117188 85.070312 284.5 84.375 282.808594 C 83.683594 281.039062 83.222656 279.265625 83.144531 277.421875 C 84.222656 279.191406 85.222656 280.960938 86.070312 282.808594 C 86.457031 283.652344 87.6875 283.960938 88.457031 283.578125 C 89.074219 283.269531 89.457031 282.808594 89.613281 282.113281 C 90.765625 283.421875 93.539062 282.191406 92.84375 280.269531 C 92.84375 280.191406 92.769531 280.113281 92.769531 280.035156 C 93.382812 280.035156 93.921875 279.804688 94.308594 279.265625 Z M 94.308594 279.265625 " fill-opacity="1" fill-rule="nonzero"/><path fill="#4d0e0e" d="M 170.214844 154.515625 C 167.597656 157.128906 165.75 160.363281 162.671875 162.519531 C 161.980469 162.980469 161.285156 163.441406 160.515625 163.824219 C 159.824219 164.210938 159.128906 164.597656 158.359375 164.75 C 158.128906 164.828125 158.054688 164.75 157.976562 164.671875 C 157.820312 164.597656 157.515625 164.289062 157.359375 164.058594 C 156.742188 163.441406 156.207031 162.824219 155.511719 162.363281 C 153.433594 160.980469 151.507812 164.363281 153.585938 165.671875 C 154.050781 165.980469 154.589844 166.75 155.128906 167.210938 C 155.898438 167.90625 156.742188 168.367188 157.820312 168.519531 C 159.976562 168.75 162.210938 167.367188 163.902344 166.210938 C 165.597656 165.132812 167.214844 163.824219 168.601562 162.285156 C 170.140625 160.59375 171.371094 158.746094 172.910156 157.128906 C 174.605469 155.4375 171.910156 152.667969 170.214844 154.515625 Z M 170.214844 154.515625 " fill-opacity="1" fill-rule="nonzero"/></svg>